<svg width="64" height="64" viewBox="0 0 64 64" fill="none" xmlns="http://www.w3.org/2000/svg">
<path fill-rule="evenodd" clip-rule="evenodd" d="M39.1359 55.5883C39.4648 55.3796 39.8237 55.2217 40.1964 55.1085C51.7509 51.5987 60.1598 40.8614 60.1598 28.16C60.1598 12.6077 47.5522 0 31.9998 0C16.4475 0 3.83984 12.6077 3.83984 28.16C3.83984 39.2392 10.238 48.824 19.5411 53.421C19.5516 53.4262 19.5473 53.4421 19.5356 53.4412C19.528 53.4406 19.5223 53.4478 19.5246 53.455L21.7936 60.6403C22.5846 63.1449 25.5337 64.2205 27.7513 62.8131L39.1359 55.5883Z" fill="#C81912"/>
<path d="M41.8127 20.6379C42.6411 19.8095 42.6411 18.4664 41.8127 17.638L41.3612 17.1865C40.5328 16.3581 39.1897 16.3581 38.3613 17.1865L31.9992 23.5486L25.6372 17.1865C24.8088 16.3581 23.4656 16.3581 22.6372 17.1865L22.1858 17.638C21.3574 18.4664 21.3574 19.8095 22.1858 20.6379L28.5478 27L22.1858 33.3621C21.3574 34.1905 21.3574 35.5336 22.1858 36.362L22.6372 36.8135C23.4656 37.6419 24.8088 37.6419 25.6372 36.8135L31.9992 30.4514L38.3613 36.8135C39.1897 37.6419 40.5328 37.6419 41.3612 36.8135L41.8127 36.362C42.6411 35.5336 42.6411 34.1905 41.8127 33.3621L35.4506 27L41.8127 20.6379Z" fill="white"/>
</svg>
