<svg width="74" height="75" viewBox="0 0 74 75" fill="none" xmlns="http://www.w3.org/2000/svg">
<circle cx="10.607" cy="9.29547" r="9.29547" fill="#7DED61"/>
<circle cx="70.099" cy="47.7167" r="3.71819" fill="#7DED61"/>
<path d="M69.4438 11.0254C72.4971 18.5484 68.8737 27.1222 61.3507 30.1755C60.5208 30.5123 59.6781 30.7679 58.8315 30.9459C54.1204 31.9367 48.8591 33.2841 46.3382 37.3856C43.3951 42.1741 45.0036 48.3927 49.3496 51.9571C58.015 59.0642 65.0268 68.4316 69.3829 79.6188C82.9059 114.348 65.7149 153.464 30.9856 166.987C-3.74364 180.51 -42.8599 163.319 -56.3829 128.59C-69.9059 93.8608 -52.7149 54.7445 -17.9856 41.2215C-2.81658 35.3149 13.1894 35.2679 27.5341 39.9824C32.7299 41.6901 38.6536 40.072 41.5174 35.4126L42.5823 33.68C44.694 30.2442 43.7172 25.8192 42.2006 22.0823C39.1473 14.5593 42.7707 5.9855 50.2937 2.93221C57.8167 -0.121075 66.3906 3.50236 69.4438 11.0254Z" fill="#7DED61"/>
</svg>
