<svg width="63" height="79" viewBox="0 0 63 79" fill="none" xmlns="http://www.w3.org/2000/svg">
<circle cx="16.3184" cy="29.2295" r="5.41999" fill="#C81912"/>
<circle cx="52.0792" cy="21.4286" r="10.3175" fill="#C81912"/>
<path fill-rule="evenodd" clip-rule="evenodd" d="M15.2155 39.2373C15.1108 38.7129 14.7271 38.288 14.2161 38.1304C13.6421 37.9534 13.0184 38.1467 12.6452 38.6172L10.5001 41.3213C9.03091 43.1734 6.67521 44.0491 4.32052 43.8391C-1.45066 43.3245 -7.40783 43.7858 -13.3335 45.3498C-40.7395 52.5834 -57.0926 80.6643 -49.8591 108.07C-42.6256 135.476 -14.5446 151.83 12.8615 144.596C40.2675 137.363 56.6206 109.282 49.3871 81.8755C45.2393 66.1603 34.2365 54.0794 20.4369 47.9961C18.1387 46.9829 16.3661 44.9976 15.8742 42.5346L15.2155 39.2373Z" fill="#C81912"/>
<circle cx="6.48221" cy="3.60916" r="2.77061" transform="rotate(-22.0902 6.48221 3.60916)" fill="#C81912"/>
</svg>
