<svg width="65" height="64" viewBox="0 0 65 64" fill="none" xmlns="http://www.w3.org/2000/svg">
<path fill-rule="evenodd" clip-rule="evenodd" d="M32.796 56.32C48.2945 56.32 60.8585 43.7123 60.8585 28.16C60.8585 12.6077 48.2945 0 32.796 0C17.2974 0 4.7334 12.6077 4.7334 28.16C4.7334 36.917 8.71679 44.7405 14.9645 49.9053C14.9745 49.9135 14.9656 49.9295 14.9533 49.9253V49.9253C14.9458 49.9227 14.938 49.9283 14.938 49.9362V57.494C14.938 60.4757 18.0829 62.4092 20.7435 61.0633L29.3148 56.7276C29.9798 56.3912 30.7253 56.2544 31.4698 56.2891C31.9093 56.3096 32.3514 56.32 32.796 56.32Z" fill="#7DED61"/>
<path fill-rule="evenodd" clip-rule="evenodd" d="M44.207 17.3463C45.2661 18.1584 45.4682 19.6744 44.6589 20.7356L32.6485 36.4829C32.225 37.0381 31.5831 37.3832 30.8875 37.4295C30.1919 37.4757 29.5101 37.2188 29.0172 36.7245L21.3941 29.0814C20.4514 28.1362 20.4514 26.6063 21.3941 25.6611C22.3404 24.7124 23.8772 24.7124 24.8235 25.6611L30.4842 31.3367L40.809 17.7994C41.6213 16.7344 43.144 16.5313 44.207 17.3463Z" fill="white"/>
</svg>
